HIERARCHY
ROOT mug1
{
	OFFSET 0.000000 0.000000 0.000000
	CHANNELS 6 Xposition Yposition Zposition Yrotation Xrotation Zrotation
	End Site
	{
		OFFSET 0.000000 0.000000 0.000000
	}
}
MOTION
Frames: 118
Frame Time: 0.008333334
1.795476 5.575871 4.311059 -136.821000 -4.007996 5.497963 
1.783952 5.571346 4.317325 -138.798000 -4.032471 6.230690 
1.772512 5.566869 4.322156 -140.717800 -4.041748 7.033977 
1.761611 5.561459 4.326509 -142.634200 -4.067169 7.802786 
1.750509 5.555407 4.329723 -144.532200 -4.127289 8.578263 
1.739802 5.550286 4.332256 -146.414600 -3.933075 9.393904 
1.728534 5.544284 4.334734 -148.183800 -3.766663 10.088330 
1.718177 5.538949 4.337048 -149.941400 -3.639771 10.823500 
1.708078 5.533617 4.339272 -151.567700 -3.403534 11.372470 
1.698485 5.527553 4.341289 -153.106600 -3.383514 11.912350 
1.687716 5.523710 4.341272 -154.770500 -3.303589 12.556460 
1.682221 5.516578 4.343600 -155.837300 -2.857513 12.770210 
1.674364 5.511590 4.342882 -157.082200 -2.799988 13.202300 
1.668361 5.506527 4.341593 -158.153700 -2.387665 13.586480 
1.664104 5.501426 4.339106 -159.052400 -2.061218 13.955070 
1.661027 5.496976 4.335206 -159.869300 -1.673157 14.296110 
1.659242 5.492423 4.331200 -160.450300 -1.251984 14.652440 
1.658130 5.488273 4.326587 -160.974900 -0.934113 14.942900 
1.658738 5.484260 4.322015 -161.266200 -0.564789 15.254860 
1.660019 5.480837 4.317735 -161.442400 -0.122559 15.402970 
1.661760 5.477337 4.313938 -161.539600 0.052104 15.566450 
1.663331 5.473881 4.310750 -161.497200 0.267662 15.627270 
1.664894 5.470774 4.307713 -161.433300 0.307856 15.588770 
1.666839 5.466947 4.305559 -161.297100 0.419367 15.503160 
1.668350 5.463386 4.303054 -161.229600 0.448680 15.411790 
1.669585 5.460209 4.300847 -161.183900 0.543211 15.306320 
1.672514 5.456391 4.298776 -161.057800 0.579737 15.159560 
1.674364 5.453457 4.296365 -161.028400 0.608751 15.013910 
1.676322 5.450955 4.293098 -161.163500 0.740894 14.908330 
1.678411 5.448688 4.290248 -161.388200 0.786496 14.751790 
1.680863 5.447576 4.287128 -161.627900 1.121969 14.565590 
1.683026 5.445914 4.284233 -162.087200 1.184104 14.280440 
1.684753 5.444653 4.281460 -162.713200 1.172776 14.052650 
1.687834 5.443160 4.279740 -163.429900 1.194577 13.824080 
1.692901 5.442051 4.277666 -164.218100 1.409968 13.559120 
1.699001 5.440956 4.275301 -165.055800 1.377247 13.470420 
1.707028 5.439598 4.272359 -165.883700 1.402033 13.354740 
1.715981 5.438323 4.268640 -166.645300 1.476403 13.238800 
1.726081 5.436385 4.264570 -167.352800 1.435793 13.188890 
1.736174 5.436524 4.259926 -167.943000 1.606897 13.251040 
1.746218 5.436256 4.254200 -168.634700 1.798504 13.166910 
1.756024 5.436541 4.248579 -169.415400 1.784375 13.111130 
1.765682 5.437006 4.243764 -170.168200 1.901098 12.861810 
1.773568 5.438840 4.240086 -170.968100 2.064929 12.630440 
1.781984 5.440104 4.236936 -171.807600 2.003399 12.192970 
1.788495 5.440819 4.233591 -172.724500 1.835629 11.816580 
1.795631 5.441180 4.231658 -173.556500 1.675260 11.298760 
1.801396 5.440663 4.230387 -174.434100 1.500650 10.746320 
1.807161 5.440147 4.229115 -175.309800 1.317611 10.196640 
1.812366 5.438844 4.228364 -176.085500 1.082066 9.581245 
1.816806 5.438047 4.226645 -176.943300 0.956993 9.025408 
1.821948 5.437027 4.226651 -177.633300 0.605172 8.536436 
1.827089 5.436007 4.226657 -178.320300 0.247502 8.051759 
1.835742 5.434654 4.230349 -178.687500 -0.268524 7.679986 
1.843666 5.434965 4.234555 -179.151200 -0.887665 7.649292 
1.853490 5.435199 4.239285 -179.403300 -1.189209 7.512697 
1.862171 5.436116 4.242699 -179.954200 -1.722809 7.559825 
1.869435 5.437482 4.244887 179.513700 -1.987610 7.420679 
1.875180 5.439366 4.245858 178.822800 -2.261993 7.434820 
1.879460 5.440945 4.246861 178.263300 -2.349182 7.263019 
1.882129 5.441990 4.246937 177.815900 -2.558990 7.006963 
1.883062 5.442985 4.245914 177.294700 -2.544800 6.632405 
1.882955 5.443876 4.245050 176.876300 -2.496826 6.315135 
1.883349 5.444522 4.245513 176.485200 -2.589203 6.049028 
1.884923 5.444399 4.248186 176.233000 -2.737183 5.898390 
1.887155 5.444645 4.251902 176.048700 -2.901123 5.904636 
1.890664 5.445944 4.256130 175.979700 -2.940796 5.983681 
1.894649 5.447071 4.260693 176.044000 -3.080841 6.198842 
1.897451 5.448375 4.264128 176.054800 -3.208160 6.518371 
1.901227 5.449902 4.267851 176.247500 -3.397675 6.738982 
1.902718 5.451921 4.270037 176.346700 -3.471008 6.937706 
1.901313 5.455418 4.271663 176.433200 -3.380310 7.048595 
1.898340 5.458082 4.272247 176.501300 -3.274078 6.882069 
1.891320 5.460763 4.273242 176.540800 -3.242065 6.621228 
1.881125 5.463881 4.272457 176.541700 -3.264526 6.177036 
1.868610 5.466385 4.271454 176.588000 -3.193512 5.568193 
1.854260 5.468027 4.269852 176.706200 -3.199310 4.745629 
1.836315 5.470630 4.267353 176.778600 -2.940094 3.862516 
1.817173 5.472746 4.264129 176.856200 -2.776093 2.893209 
1.797219 5.474786 4.260770 176.966700 -2.541443 1.877738 
1.777315 5.476996 4.256756 177.036200 -2.336212 0.915710 
1.758087 5.479222 4.252970 177.060000 -1.950806 0.043814 
1.740453 5.481646 4.249171 177.069700 -1.847839 -0.658539 
1.725946 5.484800 4.244857 177.052200 -1.540436 -1.345276 
1.713130 5.488107 4.240716 177.080400 -1.268188 -1.738129 
1.702682 5.492812 4.236416 177.040200 -0.959900 -2.072998 
1.694976 5.497360 4.233202 176.973600 -0.937714 -2.178955 
1.688855 5.503002 4.231566 177.009900 -0.729401 -2.270935 
1.685001 5.510090 4.228703 177.171000 -0.637695 -2.204803 
1.684242 5.517992 4.224832 177.548400 -0.387238 -2.136444 
1.684827 5.526985 4.219597 177.740200 -0.219910 -1.927399 
1.685716 5.535558 4.215406 177.784000 -0.159393 -1.634155 
1.686187 5.544090 4.213425 177.707100 -0.264893 -1.386169 
1.686686 5.551771 4.213457 177.560100 -0.497894 -1.240540 
1.687410 5.560500 4.215249 177.317100 -0.827332 -1.085358 
1.687878 5.568136 4.219212 176.887900 -1.242432 -1.003235 
1.687120 5.576612 4.224730 176.372600 -1.737152 -0.935730 
1.685737 5.586054 4.231879 175.696200 -2.471893 -0.881867 
1.683701 5.596679 4.241143 175.002800 -3.383331 -0.879578 
1.680778 5.608002 4.250606 174.351700 -4.190125 -0.694733 
1.678172 5.619627 4.259830 173.774600 -4.994110 -0.586670 
1.674227 5.631865 4.269628 173.366000 -5.761902 -0.392334 
1.669983 5.643209 4.280011 172.879900 -6.622986 -0.122192 
1.666677 5.655486 4.290588 172.519500 -7.342926 0.069304 
1.662516 5.667185 4.302207 172.032200 -8.203613 0.310157 
1.658216 5.678890 4.313821 171.452400 -8.968872 0.571779 
1.654494 5.689354 4.326229 170.857400 -9.885101 0.890364 
1.650966 5.700273 4.339256 170.307600 -10.707610 1.330018 
1.648011 5.711709 4.352525 169.795000 -11.558750 1.760184 
1.643541 5.722915 4.366280 169.146100 -12.262050 2.291678 
1.638464 5.735256 4.380086 168.451000 -13.027800 2.831819 
1.633202 5.748132 4.393425 167.764000 -13.601350 3.398720 
1.627603 5.761070 4.407934 167.067300 -14.064390 3.779559 
1.620218 5.773684 4.421685 166.354900 -14.728640 4.194568 
1.611712 5.785591 4.436046 165.542100 -15.453610 4.480292 
1.602676 5.796992 4.452141 164.799300 -16.125670 4.691704 
1.593462 5.806658 4.468137 164.210200 -17.012880 4.693125 
1.582012 5.816436 4.485591 163.581400 -17.843080 4.715942 
